<?xml version="1.0" standalone="no"?>
<!DOCTYPE svg PUBLIC "-//W3C//DTD SVG 20010904//EN"
 "http://www.w3.org/TR/2001/REC-SVG-20010904/DTD/svg10.dtd">
<svg version="1.0" xmlns="http://www.w3.org/2000/svg"
 width="500.000000pt" height="500.000000pt" viewBox="0 0 500.000000 500.000000"
 preserveAspectRatio="xMidYMid meet">
<metadata>
Created by potrace 1.14, written by Peter Selinger 2001-2017
</metadata>
<g transform="translate(0.000000,500.000000) scale(0.100000,-0.100000)"
fill="#000000" stroke="none">
<path d="M2458 3914 c-2 -1 -30 -5 -64 -8 -33 -3 -67 -8 -75 -10 -8 -3 -27 -8
-44 -11 -37 -7 -59 -13 -62 -15 -2 -2 -7 -4 -13 -5 -5 -1 -12 -4 -15 -5 -3 -1
-8 -3 -12 -4 -25 -4 -115 -44 -158 -69 -113 -66 -208 -144 -270 -222 -16 -20
-34 -42 -40 -49 -61 -70 -161 -279 -143 -299 2 -2 -3 -11 -11 -21 -8 -9 -11
-19 -8 -22 3 -3 1 -18 -4 -32 -8 -20 -22 -168 -21 -217 4 -125 38 -271 84
-355 38 -70 126 -155 186 -182 64 -28 171 -33 242 -11 123 38 205 174 178 293
-13 53 -15 61 -38 120 -40 106 -19 256 48 340 101 125 278 168 434 105 85 -34
142 -89 180 -175 61 -135 30 -310 -70 -402 -41 -38 -145 -91 -156 -80 -3 3 -6
0 -6 -6 0 -7 -8 -12 -18 -12 -41 0 -166 -72 -227 -131 -80 -77 -122 -157 -140
-269 -4 -22 -7 -198 -6 -258 l1 -24 33 22 c49 32 118 61 157 65 19 2 85 4 145
5 141 3 227 18 340 61 86 33 228 119 292 177 68 61 171 199 217 290 28 55 68
172 59 172 -3 0 -1 6 5 13 5 6 13 28 16 47 3 19 9 49 12 65 9 42 8 230 0 295
-10 72 -62 233 -93 290 -33 59 -116 177 -151 215 -34 36 -108 98 -182 149 -52
37 -184 105 -212 110 -7 1 -17 4 -23 8 -13 7 -150 39 -195 44 -47 6 -169 11
-172 8z"/>
<path d="M2393 1776 c-148 -58 -220 -246 -148 -386 27 -53 85 -109 139 -135
66 -32 189 -31 251 2 96 51 154 142 156 245 2 83 -15 132 -68 197 -73 88 -216
121 -330 77z"/>
<path d="M2288 1075 c-1 -1 -43 -6 -93 -9 -212 -15 -315 -37 -315 -65 0 -23
78 -46 199 -59 121 -13 808 -8 906 7 95 14 149 35 142 54 -5 17 -96 45 -173
52 -38 4 -87 9 -109 12 -46 5 -551 13 -557 8z"/>
</g>
</svg>
